<svg width="96" height="96" viewBox="0 0 480 521" fill="none" xmlns="http://www.w3.org/2000/svg">
<path d="M160.311 421.161C160.311 423.707 161.082 425.989 161.082 428.396C161.082 430.861 160.418 422.264 162.623 421.161" stroke="#EA5F0C" stroke-width="3" stroke-linecap="round"/>
<path d="M163.394 417.308C165.569 417.308 166.698 419.821 167.204 421.589C167.842 423.824 169.598 425.135 170.329 427.325" stroke="#EA5F0C" stroke-width="3" stroke-linecap="round"/>
<path d="M158 416.538C158 415.729 158.108 418.992 157.828 419.62C157.052 421.367 156.459 421.731 156.459 423.772C156.459 425.07 157.372 421.201 158.385 420.39C159.539 419.468 160.399 418.123 161.852 418.849" stroke="#EA5F0C" stroke-width="3" stroke-linecap="round"/>
<path d="M163.394 418.079C165.569 420.254 167.246 422.62 167.246 425.784" stroke="#EA5F0C" stroke-width="3" stroke-linecap="round"/>
<path d="M192.674 439.654C194.485 439.88 193.402 444.928 196.356 442.565C197.892 441.336 197.327 445.341 195.371 445.776C192.284 446.462 196.212 440.553 197.126 441.366C197.945 442.094 198.991 446.357 196.955 445.776C194.041 444.943 199.288 441.471 199.909 441.195C202.67 439.968 199.471 443.071 197.555 443.336C185.189 445.041 196.285 431.364 200.551 435.63C202.936 438.015 198.148 438.741 196.698 439.654C193.777 441.493 196.841 438.884 198.454 438.884C199.93 438.884 200.247 442.295 199.438 443.336C198.78 444.182 204.246 441.639 201.493 443.892C199.615 445.429 197.504 446.936 195.414 448.13C193.313 449.331 193.445 443 193.445 445.818C193.445 447.33 192.636 451.212 194.601 451.212C196.527 451.212 198.454 451.212 200.38 451.212" stroke="#EA5F0C" stroke-width="3" stroke-linecap="round"/>
<path d="M205.774 435.031C203.044 436.637 202.582 439.033 201.15 441.538C199.666 444.135 200.38 441.933 200.38 439.697C200.38 434.439 200.766 439.566 200.294 441.923C199.39 446.442 198.068 446.084 198.068 441.666C198.068 441.461 198.218 439.59 197.683 440.125C197.237 440.571 196.527 442.254 196.527 441.623C196.527 440.347 199.519 436.249 199.609 439.226C199.735 443.371 198.765 445.065 201.921 441.538C203.558 439.708 202.692 444.542 202.692 445.818" stroke="#EA5F0C" stroke-width="3" stroke-linecap="round"/>
<path d="M198.839 432.719C199.524 437.559 198.386 448.99 204.532 441.966C207.66 438.391 206.552 439.442 203.847 438.841C201.655 438.354 202.713 438.441 203.462 437.771C204.568 436.781 208.457 435.031 206.972 435.031C204.831 435.031 203.432 437.308 201.621 438.113C200.137 438.773 203.164 436.167 203.805 435.801C204.7 435.29 199.323 437.204 198.154 438.113C197.089 438.942 195.757 441.785 195.757 438.884C195.757 434.921 196.341 436.615 198.24 436.572C198.716 436.561 204.332 435.755 204.061 436.229C202.913 438.24 199.249 438.387 197.683 439.954C197.252 440.384 201.203 438.06 199.609 439.654C199.224 440.039 197.217 441.883 197.298 440.425C197.385 438.849 202.595 434.454 200.38 438.884" stroke="#EA5F0C" stroke-width="3" stroke-linecap="round"/>
<path d="M205.774 444.277C206.98 447.629 207.315 449.976 207.315 453.524" stroke="#EA5F0C" stroke-width="3" stroke-linecap="round"/>
<path d="M204.233 443.507C204.233 448.185 203.462 452.728 203.462 457.377" stroke="#EA5F0C" stroke-width="3" stroke-linecap="round"/>
<path d="M205.774 444.277C205.774 448.427 206.057 453.524 200.38 453.524" stroke="#EA5F0C" stroke-width="3" stroke-linecap="round"/>
<path d="M197.298 448.13C197.298 448.946 196.527 455.696 196.527 452.753" stroke="#EA5F0C" stroke-width="3" stroke-linecap="round"/>
<path d="M196.527 446.589C196.222 448.269 194.986 449.443 194.986 451.212" stroke="#EA5F0C" stroke-width="3" stroke-linecap="round"/>
<path d="M200.38 445.818C200.839 447.094 202.692 452.031 202.692 448.515C202.692 444.285 202.39 445.811 203.077 449.243C203.727 452.493 204.721 453.524 200.38 453.524" stroke="#EA5F0C" stroke-width="3" stroke-linecap="round"/>
<path d="M195.757 450.442C195.184 452.033 194.216 453.36 194.216 455.065" stroke="#EA5F0C" stroke-width="3" stroke-linecap="round"/>
<path d="M199.609 448.13V453.524" stroke="#EA5F0C" stroke-width="3" stroke-linecap="round"/>
<path d="M428.25 241.5C428.083 241.667 428 241.917 428 242.25C428 242.417 427.917 242.583 427.75 242.75C427.417 243.417 427.25 243.75 427.25 243.75C427.083 244.417 426.833 244.833 426.5 245C426.167 245.167 425.833 245.417 425.5 245.75L424.5 246.5C424 248.667 423.583 250.75 423.25 252.75C423.083 254.917 422.833 257.083 422.5 259.25C422.333 260.083 422.167 261.333 422 263C422 264.667 421.833 265.083 421.5 264.25C421 262.083 420.75 259.917 420.75 257.75C420.917 255.583 420.833 253.417 420.5 251.25C420.5 251.083 420.333 251.083 420 251.25C419.833 251.583 419.667 251.75 419.5 251.75C419.167 251.917 418.75 252.167 418.25 252.5C417.75 252.833 417.167 252.917 416.5 252.75C416.333 252.75 416.083 252.583 415.75 252.25C414.417 252.25 413 251.667 411.5 250.5C411.333 251 411.25 251.583 411.25 252.25C411.417 253.083 411.25 253.667 410.75 254C410.25 254.333 410 254.083 410 253.25C410 252.417 409.917 251.75 409.75 251.25C409.75 251.25 409.667 250.5 409.5 249C409.5 247.667 408.75 247.333 407.25 248C407.083 248.167 406.833 248.417 406.5 248.75C406.333 249.083 406 249.5 405.5 250C405 250.667 404.417 251.25 403.75 251.75C403.583 251.917 403.333 252.167 403 252.5C402.833 253 402.583 253.417 402.25 253.75C401.75 254.083 401.25 254 400.75 253.5C400.417 253.167 400.083 252.917 399.75 252.75C399.583 252.75 399.167 252.833 398.5 253C398 253.333 397.75 253.583 397.75 253.75C397.75 253.75 397.667 253.75 397.5 253.75C397.5 253.75 397.5 253.833 397.5 254C397.5 254 397.333 254.167 397 254.5C396 255.667 395.25 257 394.75 258.5C394.25 260.167 393.667 261.667 393 263C392.667 263.667 392.25 264.417 391.75 265.25C391.417 266.25 390.833 267 390 267.5C389.833 269.667 389.667 271.833 389.5 274C389.5 276.167 389.333 278.333 389 280.5C388.833 281 388.667 281.75 388.5 282.75C388.5 283.75 388.333 284 388 283.5C387.5 282.5 387.25 281.417 387.25 280.25C387.25 279.25 387.167 278.167 387 277C386.833 275.167 386.75 273.417 386.75 271.75C386.75 270.083 386.583 268.417 386.25 266.75C385.25 265.917 384.5 265.167 384 264.5C383.333 263.5 382.583 262.417 381.75 261.25C381.083 260.083 380.333 258.917 379.5 257.75C378.833 256.583 378.167 255.5 377.5 254.5C377 253.5 376.417 252.5 375.75 251.5C375.583 251.167 375.333 250.833 375 250.5L374.25 249.25H374C373.833 249.25 373.583 248.833 373.25 248C373.083 247.333 372.833 246.75 372.5 246.25C373.333 247.083 373.583 247.333 373.25 247C373.083 246.667 372.667 246.167 372 245.5C371.5 244.833 371.167 244.5 371 244.5L370.75 244.25L370 243C370 242.833 369.917 242.75 369.75 242.75C369.75 242.583 369.75 242.417 369.75 242.25C369.25 240.917 369.083 239.417 369.25 237.75C369.417 235.917 369.5 234.333 369.5 233V173.75C369.5 176.583 369.583 177.917 369.75 177.75C369.917 177.583 370.083 176.833 370.25 175.5C370.417 174.167 370.417 173.083 370.25 172.25C370.083 171.25 369.667 171.417 369 172.75L368 174.25C367.667 174.583 367.5 174.833 367.5 175C367.667 175 367.583 175.167 367.25 175.5C367.25 175.5 367.167 175.583 367 175.75C367 175.75 367 175.833 367 176C366.167 177.167 365.333 178.417 364.5 179.75C363.833 181.083 363.083 182.417 362.25 183.75C360.917 185.917 359.583 188.167 358.25 190.5C356.917 192.833 355.5 195.083 354 197.25C353.833 197.75 353.583 198.25 353.25 198.75C352.917 199.25 352.583 199.667 352.25 200C351.75 200.667 351.167 201.333 350.5 202C350 202.667 349.333 203.167 348.5 203.5C348.333 203.667 348.083 203.917 347.75 204.25C347.583 204.583 347.25 205.167 346.75 206C346.583 206.167 346.333 206.25 346 206.25C345.833 208.083 345.667 210.917 345.5 214.75C345.5 218.417 345.417 222.417 345.25 226.75C345.25 231.083 345.167 235.167 345 239C345 242.667 344.917 245.417 344.75 247.25C344.75 247.417 344.583 247.5 344.25 247.5C343.917 247.5 343.75 247.417 343.75 247.25C343.583 244.917 343.417 241.25 343.25 236.25C343.25 231.25 343.25 226.167 343.25 221C343.25 215.833 343.083 211.75 342.75 208.75C342.75 208.75 342.5 208.5 342 208L341.75 208.25C341.75 208.25 341.75 208.333 341.75 208.5C341.75 208.5 341.667 208.5 341.5 208.5C341.5 208.833 341.333 209.167 341 209.5C340.667 210.167 340.25 210.833 339.75 211.5C339.25 212 338.667 212.417 338 212.75C337.667 213.583 337.583 214.667 337.75 216C337.917 217.333 337.583 217.917 336.75 217.75C335.917 217.417 335.667 216.667 336 215.5C336.333 214.167 336.333 213 336 212C335.667 211.667 335.333 211.25 335 210.75C334.667 210.25 334.333 209.917 334 209.75C333.5 209.25 333.25 209 333.25 209C333.083 209.667 332.833 210.333 332.5 211C332.333 211.667 332.167 212.167 332 212.5C332 211.667 331.75 210.667 331.25 209.5C330.917 209.833 330.75 210.083 330.75 210.25C330.75 210.25 330.583 210.417 330.25 210.75C329.917 211.25 329.583 211.833 329.25 212.5C328.917 213.167 328.583 213.75 328.25 214.25C328.083 214.417 327.75 214.75 327.25 215.25C326.917 215.583 326.583 215.667 326.25 215.5C325.917 215.333 325.667 215.167 325.5 215C325.333 214.667 325.083 214.417 324.75 214.25C323.917 213.417 323.333 212.167 323 210.5C322.667 209.333 322.333 208.25 322 207.25C321.833 206.083 321.583 204.917 321.25 203.75C320.583 203.417 320 203 319.5 202.5C319.167 201.833 318.75 201.25 318.25 200.75L317 198.75C315.667 196.583 314.333 194.417 313 192.25C311.667 189.917 310.333 187.667 309 185.5L306.75 181.75C306.25 181.083 305.75 180.417 305.25 179.75C304.917 179.083 304.5 178.417 304 177.75L303.25 176.25C303.083 175.917 302.917 175.583 302.75 175.25C302.583 174.917 302.333 174.583 302 174.25C302 174.083 301.917 174 301.75 174C301.75 174 301.75 173.917 301.75 173.75C301.75 173.75 301.583 173.583 301.25 173.25C301.25 172.417 301.083 171.833 300.75 171.5C300.583 171 300.5 171.417 300.5 172.75V236.25C300.5 237.083 300.5 238 300.5 239C300.667 239.833 300.667 240.667 300.5 241.5C300.5 241.167 300.417 241.333 300.25 242C300.083 242.5 300.083 242.667 300.25 242.5C300.083 243.167 299.667 243.833 299 244.5L297.5 246C297.333 246.667 297.167 247.333 297 248C297 248.833 296.833 249.667 296.5 250.5C296.167 252.667 295.75 254.75 295.25 256.75C294.917 258.917 294.417 261.083 293.75 263.25C293.583 263.75 293.333 264.583 293 265.75C292.667 266.917 292.333 267.75 292 268.25C291 269.25 290.25 268.917 289.75 267.25C289.25 265.75 288.917 264.917 288.75 264.75C288.417 263.417 288.083 262 287.75 260.5C287.417 259.167 287.083 257.75 286.75 256.25C286.583 255.417 286.5 254.583 286.5 253.75C286.5 252.917 286.333 252.167 286 251.5C285.667 251.833 285.25 252.167 284.75 252.5C284.25 253 283.75 253.417 283.25 253.75C282.917 256.917 282.667 260.167 282.5 263.5C282.5 267 282.333 270.417 282 273.75C282 273.917 281.833 273.833 281.5 273.5C281.167 273.167 281 272.917 281 272.75C279.5 270.25 279 267.917 279.5 265.75C280 263.75 280.5 261.667 281 259.5C281.667 257.333 281.25 255.083 279.75 252.75C279.583 252.417 279.417 252.083 279.25 251.75C279.083 251.417 278.833 251.083 278.5 250.75C278.167 250.75 278 250.75 278 250.75C277.667 253.417 277.5 256 277.5 258.5C277.5 261.167 277.333 263.75 277 266.25C277 266.25 276.667 266.25 276 266.25C275.333 266.25 275 266.167 275 266C274.833 263.5 274.667 260.917 274.5 258.25C274.5 255.75 274.333 253.167 274 250.5H272.75L272.5 250.25C272.167 250.25 272 250.25 272 250.25C271.833 252.417 271.75 254.5 271.75 256.5C271.75 258.667 271.583 260.833 271.25 263C271.25 263.167 270.917 262.917 270.25 262.25C269.583 261.917 269.25 261.667 269.25 261.5C268.917 259.667 268.75 257.917 268.75 256.25C268.75 254.583 268.667 252.917 268.5 251.25C268.333 251.417 268.167 251.667 268 252C267.833 252.333 267.833 252.333 268 252C267.833 252.5 267.5 253 267 253.5C266.833 253.667 266.583 253.833 266.25 254C265.917 254.333 265.583 254.667 265.25 255C264.75 256 264.417 257 264.25 258C264.083 259.167 263.75 260.333 263.25 261.5C263.083 261.667 262.917 261.917 262.75 262.25C262.75 262.583 262.583 262.917 262.25 263.25C261.917 263.583 261.583 263.583 261.25 263.25C260.583 262.583 260.167 261.417 260 259.75C259.833 258.083 259.583 257 259.25 256.5C258.417 255.667 257.667 254.583 257 253.25C256.5 252.083 255.833 250.667 255 249C254.833 249.333 254.75 249.583 254.75 249.75C254.75 250.083 254.667 250.417 254.5 250.75C254.333 250.917 253.917 250.833 253.25 250.5C252.75 250.333 252.5 250.25 252.5 250.25C251.833 249.917 251.333 249.583 251 249.25C251.167 249.583 251.25 250.167 251.25 251C251.25 251.833 250.917 253.167 250.25 255C250.083 255.667 249.917 256.25 249.75 256.75C249.583 257.25 249.417 257.833 249.25 258.5C249.083 260.333 249 263.167 249 267C249 271 249 275.167 249 279.5C249 284 249 288.167 249 292C249 296 248.833 298.917 248.5 300.75C248.333 302.417 248.167 302.667 248 301.5C248 300.333 248 298.333 248 295.5C248 292.667 248 289.75 248 286.75C248 283.75 248 281.417 248 279.75C247.833 274.75 247.75 270.583 247.75 267.25C247.75 264.083 247.667 260.917 247.5 257.75C247.333 254.75 246.917 251.083 246.25 246.75C245.583 246.417 245 246.083 244.5 245.75C242.667 244.417 241.75 242.583 241.75 240.25V78.75C241.75 76.9167 242.417 75.3333 243.75 74C245.083 72.6667 246.917 72 249.25 72H283C284.833 72 286.583 72 288.25 72C289.917 71.8333 291.5 72.1667 293 73C294.833 73.8333 296.25 75 297.25 76.5C298.417 78 299.417 79.5833 300.25 81.25C300.583 81.5833 300.833 82 301 82.5C301.333 82.8333 301.583 83.25 301.75 83.75L303 85.75C304.5 87.5833 305.917 89.75 307.25 92.25C308.75 94.5833 310.167 97.0833 311.5 99.75L320.25 114.25C322.25 117.25 324.167 120.333 326 123.5C327.833 126.667 329.667 129.75 331.5 132.75C331.833 133.417 332.25 134.167 332.75 135C333.25 135.667 333.667 136.417 334 137.25L335 138.75L336 137C336.333 136.167 336.75 135.417 337.25 134.75C337.75 134.083 338.167 133.417 338.5 132.75C340 130.417 341.5 128 343 125.5C344.5 123 346 120.5 347.5 118L349.25 115C349.25 114.833 349.25 114.75 349.25 114.75C349.417 114.75 349.5 114.667 349.5 114.5C349.5 114.5 349.667 114.333 350 114L358.5 99.75C358.667 99.75 358.75 99.75 358.75 99.75C358.75 99.5833 358.75 99.5 358.75 99.5C360.083 97 361.417 94.5833 362.75 92.25C364.25 89.9167 365.583 87.8333 366.75 86L368.25 83.5C369.083 82.1667 369.833 80.9167 370.5 79.75C371.333 78.4167 372.25 77.1667 373.25 76C373.25 75.8333 373.333 75.75 373.5 75.75C374.333 74.5833 375.5 73.6667 377 73C378.5 72.1667 380.083 71.8333 381.75 72C383.583 72 385.333 72 387 72H421.5C422.5 72 423.25 72.1667 423.75 72.5C424.25 72.6667 424.833 72.9167 425.5 73.25C427 74.25 427.917 75.9167 428.25 78.25C428.417 79.4167 428.417 80.6667 428.25 82C428.25 83.3333 428.25 84.5833 428.25 85.75V229.25C428.25 231.25 428.333 233.333 428.5 235.5C428.667 237.5 428.583 239.5 428.25 241.5Z" fill="#399695"/>
<path d="M303.5 439.75C303.167 440.25 302.75 440.75 302.25 441.25C301.917 441.75 301.583 442.167 301.25 442.5C300.583 443.167 300 443.833 299.5 444.5C299 445.167 298.417 445.833 297.75 446.5C297.083 447.167 296.333 447.833 295.5 448.5C294.833 449.167 294.083 449.917 293.25 450.75C292.917 451.083 292.583 451.333 292.25 451.5C292.25 451.667 292.083 451.833 291.75 452C291.583 452.167 291.583 452.167 291.75 452C291.083 453 290.667 453.833 290.5 454.5C290.333 454.667 290.25 454.833 290.25 455C289.75 456.167 289.25 457.333 288.75 458.5C288.417 459.667 288 460.833 287.5 462C287.5 462.333 287.417 462.583 287.25 462.75C287.083 463.583 286.75 464.5 286.25 465.5C285.917 466.333 285.583 467.167 285.25 468L284.5 469.5C284 470.5 283.417 471.417 282.75 472.25C282.25 473.25 281.583 474 280.75 474.5C280.583 476.333 280.75 478.667 281.25 481.5C281.917 484.333 282.417 487.083 282.75 489.75C283.25 492.417 283.333 494.583 283 496.25C282.667 497.917 281.583 498.583 279.75 498.25C277.25 497.75 276.083 496 276.25 493C276.417 490.167 276.917 486.833 277.75 483C278.75 479.333 279.083 476.25 278.75 473.75C278.75 473.75 278.583 473.583 278.25 473.25C277.917 472.917 277.75 472.75 277.75 472.75C277.75 472.583 277.667 472.5 277.5 472.5C277.5 472.5 277.5 472.417 277.5 472.25L276.75 471C276.417 470.167 276.083 469.417 275.75 468.75C275.417 468.083 275 467.417 274.5 466.75C274.333 466.75 274.25 466.667 274.25 466.5L272.75 467.25H272.5C272.333 469.583 272.167 471.833 272 474C272 476.333 271.917 478.667 271.75 481C271.583 482.5 271.5 484.583 271.5 487.25C271.5 490.083 271.5 492.333 271.5 494C271.5 495.833 271.25 496 270.75 494.5C270.25 492.667 269.917 490.833 269.75 489C269.75 487.333 269.75 485.583 269.75 483.75C269.25 483.75 269 483.667 269 483.5C268.833 482.333 268.833 481 269 479.5C269.333 478.167 269.583 476.75 269.75 475.25V474C269.75 473.833 269.667 473.917 269.5 474.25C269.333 474.583 269.167 474.75 269 474.75C268.667 474.417 268.417 474.083 268.25 473.75C268.25 473.417 268.167 473.167 268 473C267.833 472.833 267.667 472.333 267.5 471.5C267.333 470.667 267.083 469.833 266.75 469C265.75 469.667 265.333 470.833 265.5 472.5C265.667 474.333 266 476.25 266.5 478.25C267 480.417 267.167 482.25 267 483.75C267 483.917 266.833 484 266.5 484C266.333 484.167 266.167 484.417 266 484.75C265.833 484.917 265.667 485.25 265.5 485.75C265.333 486.25 265.167 486.333 265 486C264.833 483.667 264.75 481.333 264.75 479C264.75 476.667 264.667 474.417 264.5 472.25C264 474.083 263.5 476.083 263 478.25C262.667 480.417 262.083 482.417 261.25 484.25C261.083 484.75 260.833 485.25 260.5 485.75C260.167 486.417 259.75 486.833 259.25 487C258.417 487.5 257.667 487.25 257 486.25C256.667 485.917 256.333 485.5 256 485C255.833 484.5 255.667 484.167 255.5 484C254.333 482.5 253 481 251.5 479.5C250.167 478 249 476.417 248 474.75C248 474.583 247.917 474.417 247.75 474.25C247.75 474.25 247.75 474.167 247.75 474C247.583 474 247.5 473.917 247.5 473.75C247.333 473.417 247.167 473 247 472.5C246.833 472.167 246.667 471.833 246.5 471.5C246.167 472.333 246 473.25 246 474.25C246.167 475.417 246 476.5 245.5 477.5C245.333 477.667 245.167 477.417 245 476.75C244.833 476.25 244.667 475.833 244.5 475.5C244.167 474.5 244 473.667 244 473C243.667 473.667 243.25 474.333 242.75 475C242.417 475.833 241.917 476.583 241.25 477.25C240.083 478.417 239.333 480 239 482C238.667 484.167 238.583 486.417 238.75 488.75C238.417 488.75 238 489 237.5 489.5C237.167 490 236.833 490.5 236.5 491C236.167 491.5 235.917 492.167 235.75 493C235.75 489.667 235.75 486.583 235.75 483.75C235.917 480.917 235.917 478.75 235.75 477.25C234.917 476.583 234.083 475.75 233.25 474.75C232.583 473.917 232 473.25 231.5 472.75C231.333 472.417 231 472 230.5 471.5C230.333 471.5 230.083 471.333 229.75 471C229.083 470.667 228.667 470.917 228.5 471.75C228.333 473.25 228.25 474.75 228.25 476.25C228.25 477.917 228.083 479.5 227.75 481C227.583 481.333 227.417 481.083 227.25 480.25C227.25 479.417 227.167 478.833 227 478.5L226.25 470.5H226C209.333 470.167 194.917 467.417 182.75 462.25C170.583 456.917 161.25 449.083 154.75 438.75C153.75 437.417 152.833 436 152 434.5C151.333 432.833 150.667 431.167 150 429.5C149.5 428.5 149.083 427.5 148.75 426.5C148.417 425.5 148.083 424.5 147.75 423.5C147.083 422.5 146.5 420.75 146 418.25C145.167 415.583 144.583 412.25 144.25 408.25C143.917 404.25 143.75 400.25 143.75 396.25C143.75 392.083 143.75 388.75 143.75 386.25C143.75 384.75 143.75 383.25 143.75 381.75C143.75 380.25 143.833 378.75 144 377.25V367.25C144 363.917 144 360.5 144 357C144.167 353.333 144.583 349.917 145.25 346.75C146.75 337.583 149.75 329.5 154.25 322.5L155.75 320C155.917 319.833 156 319.667 156 319.5C156.167 319.333 156.333 319.167 156.5 319C156.833 318.5 157.167 318 157.5 317.5C158 317 158.417 316.583 158.75 316.25C165.917 307.917 175.25 301.583 186.75 297.25C198.417 292.917 211.667 290.667 226.5 290.5H229.75C231.25 290.5 232.833 290.5 234.5 290.5C236.167 290.5 237.583 290.583 238.75 290.75C239.25 290.75 239.75 290.833 240.25 291C240.75 291 241.25 291 241.75 291L246.75 291.5C247.583 291.667 248.417 291.833 249.25 292C250.083 292 250.833 292.083 251.5 292.25C255.333 292.75 259.083 293.5 262.75 294.5C262.917 294.5 263 294.583 263 294.75C272.167 297.083 280.083 300.333 286.75 304.5C293.583 308.5 299.25 313.167 303.75 318.5C304.583 319.5 305.417 320.583 306.25 321.75C307.083 322.75 307.833 323.917 308.5 325.25C308.5 325.417 308.667 325.667 309 326C309.333 326.667 309.667 327.417 310 328.25C310.5 329.083 310.917 329.917 311.25 330.75C312.75 334.25 313.75 337.917 314.25 341.75V343C314.417 343.5 314.5 344 314.5 344.5C314.5 345 314.5 345.5 314.5 346V347.5C314.5 347.833 314.333 348.167 314 348.5C314 348.5 313.917 348.583 313.75 348.75C313.75 348.75 313.75 348.833 313.75 349C313.75 349 313.583 349.167 313.25 349.5C313.583 349.5 313.667 349.583 313.5 349.75C313.333 349.75 313 350 312.5 350.5C312.333 350.667 312.167 350.917 312 351.25C311.833 351.417 311.667 351.667 311.5 352C311.333 352.167 311.25 352.333 311.25 352.5C311.25 352.667 311.167 352.833 311 353C310.833 353.167 310.667 353.5 310.5 354C310.5 354.5 310.333 354.667 310 354.5C309.667 354.5 309.5 354.333 309.5 354C309.5 353.5 309.417 353.083 309.25 352.75C309.083 352.75 309 352.75 309 352.75C309 352.583 309 352.5 309 352.5C308.833 352.333 308.583 352.333 308.25 352.5C308.083 352.667 307.833 352.833 307.5 353C307.167 353.333 307 353.5 307 353.5C306.833 353.667 306.5 353.75 306 353.75C305.667 353.75 305.333 353.833 305 354C303.833 354.333 302.583 354.75 301.25 355.25C300.083 355.75 298.833 355.917 297.5 355.75C296.333 355.75 295.25 355.583 294.25 355.25C293.417 354.75 292.417 354.417 291.25 354.25C290.417 353.917 289.5 353.833 288.5 354C287.667 354.167 286.75 354.25 285.75 354.25C285.417 354.25 285.083 354.25 284.75 354.25C284.417 354.083 284.083 354 283.75 354C282.917 354.167 282.083 354.667 281.25 355.5C280.583 356.167 279.917 356.75 279.25 357.25C278.583 357.75 277.833 358.083 277 358.25C276.167 358.417 275.333 358.667 274.5 359C273.667 359.5 272.917 360.167 272.25 361C271.583 361.667 270.833 362.167 270 362.5H307.75C309.083 362.5 310.417 362.917 311.75 363.75L313.25 365.25C314.083 366.417 314.5 367.75 314.5 369.25C314.5 370.583 314.5 371.917 314.5 373.25V388C314.5 391 314.5 394 314.5 397C314.667 400 314.667 403 314.5 406C314.333 410.167 313.833 414.083 313 417.75C312.167 421.25 311.083 424.667 309.75 428L307.5 433C306.833 434.167 306.167 435.333 305.5 436.5C305 437.667 304.333 438.75 303.5 439.75ZM228.75 421.75H229.5C232.833 421.75 236.167 421.25 239.5 420.25C243 419.083 245.75 417.167 247.75 414.5C248.583 413.167 249.167 411.917 249.5 410.75C250 409.417 250.333 408.167 250.5 407C250.5 406.833 250.5 406.583 250.5 406.25C250.667 405.917 250.75 405.583 250.75 405.25L250 403.75C249.5 403.917 249.083 404.333 248.75 405C248.417 405.667 248.083 406.167 247.75 406.5C247.25 407.167 246.667 407.75 246 408.25C245.5 408.75 244.917 409.25 244.25 409.75C243.917 409.917 243.583 410.083 243.25 410.25C242.917 410.25 242.583 410.25 242.25 410.25C241.083 410.583 240 410.25 239 409.25L237.75 408C237.083 407.167 236.583 406.25 236.25 405.25C235.917 404.25 235.5 403.333 235 402.5V402.25C234.167 401.75 233.417 400.917 232.75 399.75C232.75 399.583 232.667 399.5 232.5 399.5C232.5 399.333 232.5 399.167 232.5 399C232.5 398.833 232.417 398.667 232.25 398.5C232.25 398.333 232.25 398.167 232.25 398V397.75C232.083 396.583 232 395.417 232 394.25C232.167 393.083 232.25 392 232.25 391V378.25C232.25 376.75 232.167 375.167 232 373.5C231.833 371.667 231.917 370 232.25 368.5C232.583 367 233 365.917 233.5 365.25C233.833 364.917 234 364.75 234 364.75C235.333 363.25 237 362.5 239 362.5H265.75C264.917 362.167 264.083 361.75 263.25 361.25C262.417 360.75 261.667 360.333 261 360C258.833 358.667 256.667 357.5 254.5 356.5C252.333 355.333 250.417 353.75 248.75 351.75L247.25 350C247.083 349.833 246.917 349.667 246.75 349.5C246.75 349.333 246.667 349.167 246.5 349L245.75 348.25C245.25 347.583 244.75 346.917 244.25 346.25C243.75 345.583 243.167 344.917 242.5 344.25L241 343L239.25 344.75C239.083 344.583 239 344.333 239 344C238.5 344.167 238 344.333 237.5 344.5C237.167 344.5 236.833 344.333 236.5 344C236.667 345.167 236.75 346.417 236.75 347.75C236.917 349.083 236.5 349.75 235.5 349.75C234.333 349.75 233.917 348.75 234.25 346.75C234.75 344.75 234.833 343.167 234.5 342C234.5 341.833 234.333 341.75 234 341.75C233.833 341.583 233.667 341.667 233.5 342C233.333 343.167 233.25 344.5 233.25 346C233.25 347.333 233 348.667 232.5 350C232.333 350.167 232.167 350 232 349.5C231.833 349 231.667 348.583 231.5 348.25L230.5 345.75C230.333 345.25 230.167 344.75 230 344.25C229.833 343.583 229.667 342.917 229.5 342.25C229 342.75 228.5 343.167 228 343.5C227.667 343.833 227.083 344.083 226.25 344.25C226.083 344.417 225.667 344.583 225 344.75C224.333 344.75 223.833 344.667 223.5 344.5C223.5 344.5 223.417 344.5 223.25 344.5C223.25 344.5 223.25 344.417 223.25 344.25C222.917 343.917 222.75 343.583 222.75 343.25C222.75 342.917 222.667 342.667 222.5 342.5C222.5 342.167 222.5 341.917 222.5 341.75C221.833 341.75 221.25 341.833 220.75 342C220.083 343.167 219.833 343.917 220 344.25C220.333 344.417 220 345.083 219 346.25C218 347.417 217.167 347.333 216.5 346C216 344.667 215.417 343.917 214.75 343.75C214.75 343.75 214.5 344 214 344.5L213.75 344.75L212.5 346.25C212.333 346.417 212.25 346.583 212.25 346.75C212.25 346.917 212.167 347.083 212 347.25C210.833 349.417 210.083 351.75 209.75 354.25C209.417 356.583 209.25 358.917 209.25 361.25C209.25 362.083 209.167 363.167 209 364.5C209 365.667 209 366.917 209 368.25V389.25C209 390.917 209 392.5 209 394C209 395.333 209.083 396.5 209.25 397.5C209.25 398.667 209.25 399.833 209.25 401C209.25 402 209.333 403.083 209.5 404.25C209.833 405.917 210.25 407.667 210.75 409.5C211.25 411.167 212 412.75 213 414.25C214.333 416.417 216.083 418.083 218.25 419.25C220.417 420.417 222.667 421.167 225 421.5C225.667 421.5 226.25 421.583 226.75 421.75C227.417 421.75 228.083 421.75 228.75 421.75ZM238.75 488.75C239.417 488.917 239.833 489.917 240 491.75C240.167 493.583 240.167 495.667 240 498C239.833 496.333 239.583 494.75 239.25 493.25C239.083 491.75 238.917 490.25 238.75 488.75ZM236.5 518.5C236.833 520.167 236.833 520.25 236.5 518.75C236.167 517.417 235.75 515.167 235.25 512C234.917 509 234.667 505.667 234.5 502C234.5 498.5 234.917 495.5 235.75 493C235.583 498 235.5 502.917 235.5 507.75C235.5 512.583 235.833 516.167 236.5 518.5ZM238.5 516.5C238.167 518 238.083 517.833 238.25 516C238.583 514.167 238.917 511.5 239.25 508C239.75 504.5 240 501.167 240 498C240.667 501.667 241 505.167 241 508.5C241.167 512 240.333 514.667 238.5 516.5Z" fill="#2E4141"/>
<path d="M246 292C258.908 292 243.259 292.844 243.056 293.556C242.469 295.608 247 294.108 247 297.5C247 300.328 246 302.827 246 306" stroke="#399695" stroke-width="3" stroke-linecap="round"/>
<path d="M163 315C165.941 315 168.508 315.246 171 314" stroke="#EA5F0C" stroke-width="3" stroke-linecap="round"/>
<path d="M170 313C168.936 312.054 167 309.677 167 311.5C167 313.791 167.043 313 170 313Z" stroke="#EA5F0C" stroke-width="3" stroke-linecap="round"/>
<path d="M176.5 122.5C176.5 125.5 176.25 128.5 175.75 131.5C175.417 134.667 174.917 137.583 174.25 140.25C173.583 142.917 172.667 145 171.5 146.5C171.333 147 171.083 147.5 170.75 148C170.583 148.5 170.333 148.917 170 149.25C169.167 150.75 168.25 152.25 167.25 153.75C166.417 155.25 165.417 156.667 164.25 158C164.083 158.167 163.833 158.417 163.5 158.75C163.333 158.917 163.083 159.167 162.75 159.5L161 161.25C160.333 161.75 159.417 162.583 158.25 163.75C157.917 164.083 157.667 164.417 157.5 164.75C157.167 165.417 157 165.833 157 166L155.5 169.75C154.833 171.417 154.167 173.083 153.5 174.75C153 176.417 152.333 178.083 151.5 179.75L150.75 181.5C150.25 182.5 149.75 183.25 149.25 183.75C149.083 184.25 148.667 184.833 148 185.5C147.333 185.833 146.917 186 146.75 186C146.583 187.167 146.417 188.417 146.25 189.75C146.25 190.917 146.083 192.167 145.75 193.5C145.583 193.833 145.417 194.25 145.25 194.75C145.083 195.25 144.833 195.5 144.5 195.5C144.167 195.667 143.917 195.5 143.75 195C143.75 194.333 143.667 193.917 143.5 193.75C143.167 192.75 142.917 191.667 142.75 190.5C142.75 189.333 142.417 188.417 141.75 187.75L141 188.5C140.667 188.833 140.167 189.5 139.5 190.5C138.833 191.5 138 192.417 137 193.25C136.667 196.417 136.75 199.667 137.25 203C137.75 206.167 137.333 209.167 136 212C135.333 213.333 134.917 213.083 134.75 211.25C134.75 209.25 134.833 206.833 135 204C135.167 201 135.167 198.75 135 197.25C134.833 194.917 134.583 193.583 134.25 193.25C134.083 192.917 133.667 192.167 133 191C132.333 190.167 131.667 189.25 131 188.25C130.5 187.25 129.833 186.417 129 185.75C128.833 186.417 128.583 187.083 128.25 187.75C128.083 188.417 128 189.167 128 190C127.833 191.833 127.667 194.583 127.5 198.25C127.5 201.917 127.5 205.833 127.5 210C127.5 214 127.417 217.833 127.25 221.5C127.25 225.167 127.167 227.917 127 229.75C127 229.75 126.917 230.833 126.75 233C126.75 235 126.583 237.417 126.25 240.25C126.083 243.083 125.917 245.75 125.75 248.25C125.583 250.75 125.333 252.5 125 253.5C125 253.667 124.833 253.667 124.5 253.5C124.333 253.333 124.25 253.167 124.25 253C123.917 251.667 123.667 250.25 123.5 248.75C123.5 247.25 123.417 245.75 123.25 244.25C123.083 241.583 122.917 238.917 122.75 236.25C122.583 233.583 122.417 230.917 122.25 228.25C122.083 224.917 121.917 221.583 121.75 218.25C121.583 214.75 121.417 211.333 121.25 208C121.083 204.333 120.917 200.75 120.75 197.25C120.75 193.583 120.583 189.917 120.25 186.25C120.417 186.417 120.25 186.25 119.75 185.75C119.417 185.083 119.083 184.667 118.75 184.5C118.417 183.833 118 183.25 117.5 182.75C117.167 182.083 116.75 181.417 116.25 180.75L115.75 180.25C115.75 180.417 115.583 180.833 115.25 181.5C114.917 182.333 113.583 183.5 111.25 185C111.083 185 110.917 185.167 110.75 185.5C110.583 185.667 110.417 185.667 110.25 185.5C110.083 185.167 109.917 184.75 109.75 184.25C109.75 183.75 109.75 183.333 109.75 183C109.417 183 109.25 183.167 109.25 183.5C109.083 184.667 108.917 185.917 108.75 187.25C108.75 188.583 108.583 189.917 108.25 191.25C108.083 192.25 107.75 193.25 107.25 194.25C106.917 195.25 106.583 196.333 106.25 197.5L103.25 208.5C103.083 209.5 102.75 210.583 102.25 211.75C101.917 212.917 101.583 213.917 101.25 214.75C101.083 215.083 100.833 215.583 100.5 216.25C100.167 216.917 99.75 217.417 99.25 217.75C98.4167 218.25 97.6667 217.833 97 216.5C96.3333 215.167 95.8333 214.25 95.5 213.75C95.3333 213.417 95.0833 213.083 94.75 212.75C94.5833 212.417 94.4167 212.083 94.25 211.75C94.0833 208.25 93.9167 204.75 93.75 201.25C93.75 197.75 93.5833 194.167 93.25 190.5C93.25 190.333 93.1667 190.25 93 190.25C92.8333 190.25 92.6667 190.167 92.5 190L90.75 188.5C89.75 187.667 88.8333 186.75 88 185.75C87.3333 184.583 86.5833 183.417 85.75 182.25C85.25 181.583 84.75 180.917 84.25 180.25L83.75 180.5V219.5C83.9167 221 84 222.5 84 224C84.1667 225.5 84.0833 227 83.75 228.5V229C83.5833 229.167 83.5 229.333 83.5 229.5C83.3333 230.167 83 230.75 82.5 231.25C81.8333 232.083 80.8333 232.917 79.5 233.75L77.5 236.75C77.3333 236.917 76.9167 237.25 76.25 237.75C75.75 238.417 75.4167 238.75 75.25 238.75C75.0833 240.917 74.9167 243.083 74.75 245.25C74.75 247.583 74.5833 249.833 74.25 252C74.0833 253.5 74 255 74 256.5C74 258.167 73.8333 259.75 73.5 261.25C73.3333 261.75 73.25 262.417 73.25 263.25C73.4167 264.083 73.1667 264.417 72.5 264.25C72 264.25 71.75 263.833 71.75 263C71.9167 262.333 71.9167 261.667 71.75 261C71.25 258 71 255.667 71 254C71 252.5 70.9167 250.917 70.75 249.25C70.75 247.75 70.3333 245.583 69.5 242.75L67 245.25H66.75C66.4167 245.583 66.1667 245.75 66 245.75C65.8333 246.083 65.75 246.417 65.75 246.75C65.75 247.083 65.5833 247.333 65.25 247.5C65.0833 247.5 64.9167 247.333 64.75 247C64.75 246.667 64.5833 246.417 64.25 246.25C63.9167 246.583 63.6667 247 63.5 247.5C63.5 248 63.3333 248.417 63 248.75C62.8333 248.917 62.75 249.167 62.75 249.5C62.75 249.833 62.5833 250.083 62.25 250.25C61.5833 250.25 61.25 249.833 61.25 249C61.0833 248.167 60.9167 247.333 60.75 246.5C60.75 245.833 60.5833 245.167 60.25 244.5C60.25 244.333 60.1667 244.25 60 244.25C60 244.25 60 244.167 60 244C59.3333 243.5 58.75 242.917 58.25 242.25C57.75 241.583 57.25 240.917 56.75 240.25L54.75 237.5L54.25 237C54.0833 236.667 53.9167 236.417 53.75 236.25C53.5833 236.083 53.3333 235.917 53 235.75L52.25 237.25C51.4167 238.583 50.3333 240.083 49 241.75C47.6667 243.583 46.0833 244.667 44.25 245C42.25 245.5 41.3333 244.833 41.5 243C41.6667 241.167 41.6667 239.333 41.5 237.5L40 239C40 239.167 39.75 239.417 39.25 239.75C39.0833 239.917 38.9167 240 38.75 240C38.75 240 38.6667 240.083 38.5 240.25C38.3333 240.583 38.1667 241 38 241.5C38 242 37.8333 242.417 37.5 242.75C36.8333 243.417 36.4167 243.5 36.25 243C35.9167 242.5 35.75 241.917 35.75 241.25C35.75 240.75 35.5833 240.167 35.25 239.5C35.0833 239.333 34.8333 239.083 34.5 238.75C34.3333 238.583 34.0833 238.333 33.75 238L32.25 235.75C32.0833 236.25 32 236.75 32 237.25C32 237.917 31.8333 238.417 31.5 238.75C31.3333 238.917 31 238.75 30.5 238.25C30.1667 238.083 29.8333 237.833 29.5 237.5L26.75 235.25C25.75 235.583 25.1667 235.583 25 235.25C24.5 234.25 24.1667 233.833 24 234C23.8333 234 23.5833 233.917 23.25 233.75C22.5833 233.417 22 233.083 21.5 232.75C19.6667 231.417 18.75 229.583 18.75 227.25V66.75C18.75 65.9167 18.75 65.0833 18.75 64.25C18.9167 63.25 19.3333 62.4167 20 61.75C20.5 60.75 21.5 60 23 59.5C24 59.1667 24.75 59 25.25 59C25.5833 58.8333 26.3333 58.8333 27.5 59C28.6667 59 29.75 59 30.75 59H55.75C57.75 59 61.25 59 66.25 59C71.25 59 76.75 59 82.75 59C88.75 58.8333 94.1667 58.8333 99 59H101.25C104.417 59 107.5 59.1667 110.5 59.5C113.5 59.6667 116.417 59.9167 119.25 60.25C122.583 60.4167 125.917 60.8333 129.25 61.5C132.75 62 135.667 62.75 138 63.75C140.167 64.5833 141.667 65.4167 142.5 66.25C142.5 66.25 142.833 66.4167 143.5 66.75C143.667 66.75 143.75 66.8333 143.75 67C148.25 69 152.333 71.3333 156 74C156.5 74.1667 156.833 74.4167 157 74.75C157.333 75.0833 157.75 75.5 158.25 76C160.417 78 162.5 80.0833 164.5 82.25C165 82.9167 165.5 83.5833 166 84.25C166.5 84.75 167 85.4167 167.5 86.25C168 86.9167 168.417 87.6667 168.75 88.5C169.25 89.1667 169.667 89.9167 170 90.75C172.333 95.25 174 100 175 105C176 109.833 176.5 115.083 176.5 120.75V122.5ZM82.5 105.5V128.5C86.3333 125.5 90.75 123.25 95.75 121.75C100.75 120.25 105.75 119.417 110.75 119.25C111.25 115.75 110.583 112.583 108.75 109.75C108.583 109.417 108.25 109 107.75 108.5C107.25 108 106.833 107.667 106.5 107.5L105.25 106.75C104.25 106.417 103.167 106.333 102 106.5C101 106.667 100 106.833 99 107C97.8333 107.167 96.6667 107.333 95.5 107.5C94.5 107.5 93.4167 107.417 92.25 107.25C91.0833 107.083 89.9167 106.917 88.75 106.75C87.75 106.417 86.6667 106.167 85.5 106C85.5 106 85.1667 106 84.5 106C84 105.833 83.3333 105.667 82.5 105.5Z" fill="#EA5F0C"/>
<path d="M168.787 309.431C167.913 310.743 163.239 313.284 166.904 313.284C167.991 313.284 170.134 312.293 170.928 311.572C174.201 308.596 170.494 310.851 168.488 311.743C167.638 312.121 161.164 317.853 165.705 314.825" stroke="#EA5F0C" stroke-width="3" stroke-linecap="round"/>
<path d="M158 414.226C159.67 418.402 163.111 418.184 164.977 414.568C168.244 408.24 168.061 412.64 167.246 412.685C165.185 412.799 163.227 411.914 160.996 411.914C159.299 411.914 150.881 416.306 155.26 412.856C158.266 410.488 158.803 412.203 162.281 411.872C165.606 411.555 169.568 408.245 164.335 413.284C161.6 415.918 164.849 412.697 164.849 413.07C164.849 413.537 162.701 414.756 162.281 414.997C160.928 415.769 161.256 418.691 160.311 419.919C158.749 421.951 162.746 415.947 163.993 414.825C164.436 414.426 163.159 416.538 162.495 416.837C160.687 417.651 157.554 417.606 155.688 416.88C152.723 415.727 150.099 414.245 148.154 411.743C147.631 411.07 151.974 411.51 152.606 412.3C154.303 414.421 158.854 412.944 160.911 412.514C161.635 412.362 163.244 411.229 163.779 411.229C165.311 411.229 162.569 414.02 162.323 414.183C158.984 416.41 165.039 415.543 166.305 415.168C169.888 414.106 163.027 414.226 161.852 414.226" stroke="#EA5F0C" stroke-width="3" stroke-linecap="round"/>
<path d="M278.205 392.651C275.743 392.651 273.499 392.446 272.854 395.348C272.479 397.036 273.037 399.47 275.123 399.586C278.931 399.797 279.959 397.042 279.746 393.421C279.629 391.422 276.222 393.291 275.937 394.577C275.367 397.14 277.092 396.312 277.092 395.133C277.092 393.888 273.434 397.188 274.781 397.188C275.711 397.188 278.976 394.144 278.976 394.962" stroke="#399695" stroke-width="3" stroke-linecap="round"/>
<path d="M278.976 398.815C278.976 403.354 284.05 400.356 280.517 400.356" stroke="#399695" stroke-width="3" stroke-linecap="round"/>
<path d="M276.664 398.044C276.664 400.108 276.571 401.711 277.435 403.438" stroke="#399695" stroke-width="3" stroke-linecap="round"/>
<path d="M278.976 398.815C278.976 400.458 277.609 401.381 276.493 402.497C275.721 403.268 275.107 406.489 274.353 404.979" stroke="#399695" stroke-width="3" stroke-linecap="round"/>
<path d="M276.664 399.586C276.664 402.868 276.438 406.233 277.264 409.431C278.026 412.386 278.587 411.244 277.82 408.789C277.011 406.2 276.664 397.889 276.664 404.979" stroke="#399695" stroke-width="3" stroke-linecap="round"/>
<path d="M279.746 398.815C281.092 398.983 281.214 402.962 281.288 404.209C281.36 405.439 284.454 401.608 281.887 404.38C280.211 406.19 278.986 413.142 278.205 410.801C277.222 407.85 278.205 401.469 278.205 401.469C278.205 401.469 278.205 403.039 278.205 403.824C278.205 405.424 278.205 403.057 278.205 402.668C278.205 399.814 277.048 400.379 275.722 402.668C275.184 403.598 272.074 405.967 272.041 406.52C271.9 408.915 273.856 407.925 275.123 407.291" stroke="#399695" stroke-width="3" stroke-linecap="round"/>
<path d="M281.288 319.448C281.288 325.92 281.992 331.283 286.51 335.801C288.727 338.018 291.926 338.769 288.222 334.859C285.741 332.24 284.414 329.034 282.058 326.383C279.987 324.053 283.378 325.492 284.198 324.671C285.862 323.008 285.387 323.433 287.452 325.613C288.728 326.96 288.91 328.783 289.935 330.065C290.781 331.122 290.188 333.133 291.133 331.007C292.603 327.7 290.841 325.552 288.222 324.243C286.284 323.274 284.731 321.888 283.599 320.048C281.122 316.023 281.675 322.074 282.101 324.414C282.565 326.966 284.598 330.592 285.911 332.89C287.493 335.658 294.205 328.191 295.543 326.854C295.849 326.548 295.087 333.292 294.729 333.19C292.731 332.619 293.748 328.184 292.46 327.154C291.46 326.354 289.724 332.697 289.721 332.676C289.46 330.984 287.452 321.008 287.452 327.539C287.452 330.369 285.911 338.716 285.911 335.887C285.911 332.362 285.911 328.838 285.911 325.313C285.911 325.16 285.911 326.376 285.911 326.683C285.911 327.604 286.501 324.932 286.681 324.029C287.175 321.563 287.802 319.284 288.265 322.531C288.73 325.787 291.034 327.308 292.803 329.851C293.87 331.384 294.843 334.453 296.313 335.63C297.593 336.654 297.469 338.411 297.469 339.868C297.469 342.521 297.995 342.198 296.699 340.253" stroke="#399695" stroke-width="3" stroke-linecap="round"/>
<path d="M292.075 329.466C293.163 332.775 294.315 336.113 295.157 339.483" stroke="#399695" stroke-width="3" stroke-linecap="round"/>
<path d="M292.075 334.089C292.075 335.259 290.905 337.599 292.075 337.599C294.788 337.599 295.157 337.948 295.157 341.323C295.157 341.431 295.157 339.999 295.157 339.654C295.157 338.662 295.07 339.331 294.772 339.868C294.207 340.885 293.336 341.584 292.846 342.565" stroke="#399695" stroke-width="3" stroke-linecap="round"/>
</svg>
